<?xml version="1.0" encoding="UTF-8"?>
<svg width="512px" height="512px" viewBox="0 0 512 512" version="1.1" xmlns="http://www.w3.org/2000/svg" xmlns:xlink="http://www.w3.org/1999/xlink" style="background: #000000;">
    <!-- Generator: Sketch 41.2 (35397) - http://www.bohemiancoding.com/sketch -->
    <title>512 - Play Store Copy</title>
    <desc>Created with Sketch.</desc>
    <defs>
        <path d="M53.2398476,0 L457.760152,0 C487.163708,0 511,23.7912043 511,53.2398476 L511,457.760152 C511,487.163708 487.208796,511 457.760152,511 L53.2398476,511 C23.8362917,511 0,487.208796 0,457.760152 L0,53.2398476 C0,23.8362917 23.7912043,0 53.2398476,0 Z" id="path-1"></path>
        <mask id="mask-2" maskContentUnits="userSpaceOnUse" maskUnits="objectBoundingBox" x="0" y="0" width="511" height="511" fill="white">
            <use xlink:href="#path-1"></use>
        </mask>
    </defs>
    <g id="Icon" stroke="none" stroke-width="1" fill="none" fill-rule="evenodd">
        <g id="512---Play-Store-Copy">
            <g id="Icon-(vector)" transform="translate(1.000000, 1.000000)">
                <use id="Square---Big" stroke="#FFFFFF" mask="url(#mask-2)" stroke-width="30" fill="#000000" xlink:href="#path-1"></use>
                <circle id="Oval" fill="#FFFFFF" cx="257.5" cy="257.5" r="199.5"></circle>
                <path d="M158,294.865823 C158,326.827848 186.256881,346.005063 231.211009,346.005063 C257.155963,346.005063 274.880734,339.356962 289.266055,331.43038 L317.266055,357 L354,320.179747 L325.229358,295.121519 L354,262.392405 L316.238532,230.941772 L287.981651,262.903797 L275.137615,251.908861 C299.284404,239.635443 310.073394,223.01519 310.073394,204.349367 C310.073394,175.455696 283.100917,155 242.513761,155 C199.100917,155 172.642202,178.268354 172.642202,206.650633 C172.642202,221.481013 180.348624,235.544304 197.559633,247.562025 C171.87156,256.511392 158,274.15443 158,294.865823 Z M243.541284,224.293671 C237.376147,218.924051 233.779817,215.6 233.779817,210.23038 C233.779817,205.116456 237.376147,201.281013 243.541284,201.281013 C249.706422,201.281013 253.302752,205.116456 253.302752,210.23038 C253.302752,215.6 249.706422,218.924051 243.541284,224.293671 Z M222.220183,289.240506 C222.220183,285.149367 225.045872,281.313924 231.46789,278.501266 L250.733945,296.4 C246.110092,298.44557 240.715596,299.212658 236.862385,299.212658 C229.412844,299.212658 222.220183,295.888608 222.220183,289.240506 Z" id="&amp;" fill="#000000"></path>
            </g>
        </g>
    </g>
</svg>