<?xml version="1.0" encoding="UTF-8"?>
<svg width="471px" height="471px" viewBox="0 0 471 471" version="1.1" xmlns="http://www.w3.org/2000/svg" xmlns:xlink="http://www.w3.org/1999/xlink">
    <!-- Generator: Sketch 41.2 (35397) - http://www.bohemiancoding.com/sketch -->
    <title>512 - Play Store Copy 10</title>
    <desc>Created with Sketch.</desc>
    <defs>
        <circle id="path-1" cx="199.5" cy="199.5" r="199.5"></circle>
        <mask id="mask-3" maskContentUnits="userSpaceOnUse" maskUnits="objectBoundingBox" x="-20" y="-20" width="439" height="439">
            <rect x="-20" y="-20" width="439" height="439" fill="white"></rect>
            <use xlink:href="#path-1" fill="black"></use>
        </mask>
        <path d="M144,274.941772 C144,305.321519 170.959371,323.549367 213.849279,323.549367 C238.602883,323.549367 255.513761,317.23038 269.238532,309.696203 L295.952818,334 L331,299.002532 L303.550459,275.18481 L331,244.075949 L294.972477,214.182278 L268.013106,244.562025 L255.758847,234.111392 C278.796855,222.44557 289.090433,206.648101 289.090433,188.906329 C289.090433,161.443038 263.356488,142 224.633028,142 C183.21363,142 157.969856,164.116456 157.969856,191.093671 C157.969856,205.189873 165.322412,218.556962 181.743119,229.979747 C157.2346,238.486076 144,255.255696 144,274.941772 Z M225.613368,207.863291 C219.731324,202.759494 216.300131,199.6 216.300131,194.496203 C216.300131,189.635443 219.731324,185.989873 225.613368,185.989873 C231.495413,185.989873 234.926606,189.635443 234.926606,194.496203 C234.926606,199.6 231.495413,202.759494 225.613368,207.863291 Z M205.271298,269.594937 C205.271298,265.706329 207.967235,262.060759 214.094364,259.387342 L232.475754,276.4 C228.06422,278.344304 222.917431,279.073418 219.241153,279.073418 C212.133683,279.073418 205.271298,275.913924 205.271298,269.594937 Z" id="path-4"></path>
    </defs>
    <g id="Icon" stroke="none" stroke-width="1" fill="none" fill-rule="evenodd">
        <g id="512---Play-Store-Copy-10">
            <g id="Group-2" transform="translate(237.500000, 237.500000) rotate(45.000000) translate(-237.500000, -237.500000) translate(38.000000, 38.000000)">
                <mask id="mask-2" fill="white">
                    <use xlink:href="#path-1"></use>
                </mask>
                <g id="Mask">
                    <use fill="#FFFFFF" fill-rule="evenodd" xlink:href="#path-1"></use>
                    <use stroke="#000000" mask="url(#mask-3)" stroke-width="40" xlink:href="#path-1"></use>
                </g>
                <g mask="url(#mask-2)">
                    <g transform="translate(-7.500000, -11.105263)">
                        <rect id="Rectangle" fill="#D0011B" x="0.0995465049" y="-2.27373675e-13" width="137.194001" height="418.103254"></rect>
                        <rect id="Rectangle-Copy" fill="#7ED321" x="136.610987" y="-1.13686838e-13" width="137.194001" height="418.103254"></rect>
                        <rect id="Rectangle-Copy-2" fill="#4990E2" x="273.122427" y="2.84217094e-13" width="137.194001" height="418.103254"></rect>
                    </g>
                </g>
            </g>
            <mask id="mask-5" fill="white">
                <use xlink:href="#path-4"></use>
            </mask>
            <g id="Mask">
                <use fill="#FFFFFF" fill-rule="evenodd" xlink:href="#path-4"></use>
                <use fill="black" fill-opacity="1" xlink:href="#path-4"></use>
            </g>
        </g>
    </g>
</svg>