<?xml version="1.0" encoding="UTF-8"?>
<svg width="676px" height="177px" viewBox="0 0 676 177" version="1.1" xmlns="http://www.w3.org/2000/svg" xmlns:xlink="http://www.w3.org/1999/xlink" style="background: #101010;">
    <!-- Generator: Sketch 41.2 (35397) - http://www.bohemiancoding.com/sketch -->
    <title>Tablet 7″ Landscape Copy 8</title>
    <desc>Created with Sketch.</desc>
    <defs>
        <circle id="path-1" cx="57.5367534" cy="57.5367534" r="57.5367534"></circle>
        <mask id="mask-3" maskContentUnits="userSpaceOnUse" maskUnits="objectBoundingBox" x="-5.775" y="-5.775" width="126.623507" height="126.623507">
            <rect x="-5.775" y="-5.775" width="126.623507" height="126.623507" fill="white"></rect>
            <use xlink:href="#path-1" fill="black"></use>
        </mask>
        <path d="M55.6661562,92.2869366 C55.6661562,101.055134 63.4392932,106.316052 75.8056475,106.316052 C82.9428005,106.316052 87.8186774,104.492267 91.7759108,102.317754 L99.4783829,109.332312 L109.583461,99.231349 L101.668994,92.3570822 L109.583461,83.3784481 L99.1957233,74.7505418 L91.4225863,83.5187392 L87.8893423,80.5024793 C94.5318411,77.1354915 97.4997662,72.5760288 97.4997662,67.4554016 C97.4997662,59.5289511 90.0799536,53.9173047 78.9149023,53.9173047 C66.9725373,53.9173047 59.6940545,60.3005525 59.6940545,68.0867118 C59.6940545,72.1551554 61.8140009,76.0131622 66.548548,79.3100045 C59.4820598,81.7650997 55.6661562,86.6051447 55.6661562,92.2869366 Z M79.1975618,72.9267567 C77.5016047,71.4536996 76.5122963,70.541807 76.5122963,69.0687499 C76.5122963,67.6658383 77.5016047,66.6136546 79.1975618,66.6136546 C80.893519,66.6136546 81.8828273,67.6658383 81.8828273,69.0687499 C81.8828273,70.541807 80.893519,71.4536996 79.1975618,72.9267567 Z M73.3323766,90.7437339 C73.3323766,89.6214046 74.1096903,88.5692209 75.8763124,87.7976196 L81.1761785,92.7078101 C79.9042106,93.2689747 78.4202481,93.4794115 77.3602749,93.4794115 C75.3109933,93.4794115 73.3323766,92.5675189 73.3323766,90.7437339 Z" id="path-4"></path>
    </defs>
    <g id="Screen" stroke="none" stroke-width="1" fill="none" fill-rule="evenodd">
        <g id="Tablet-7″-Landscape-Copy-8">
            <path d="M10.72,135 L49.46,135 L49.46,100.68 L68.96,100.68 L68.96,135 L107.7,135 L107.7,40.88 L68.96,40.88 L68.96,70 L49.46,70 L49.46,40.88 L10.72,40.88 L10.72,135 Z M126.463333,121.48 C134.783333,131.23 149.343333,136.43 165.853333,136.43 C181.843333,136.43 197.443333,131.62 206.023333,121.22 C210.963333,115.24 214.603333,106.14 214.603333,91.71 L214.603333,40.88 L179.763333,40.88 L179.763333,89.76 C179.763333,99.25 176.773333,104.71 168.193333,104.71 C159.223333,104.71 156.363333,98.47 156.363333,89.63 L156.363333,40.88 L117.623333,40.88 L117.623333,92.23 C117.623333,107.57 121.783333,116.02 126.463333,121.48 Z M224.411111,135 L293.961111,135 L293.961111,105.1 L263.151111,105.1 L263.151111,99.77 L286.551111,99.77 L286.551111,77.41 L263.151111,77.41 L263.151111,72.34 L292.141111,72.34 L292.141111,40.88 L224.411111,40.88 L224.411111,135 Z M337.106667,110.43 C337.106667,126.68 351.406667,136.43 374.156667,136.43 C387.286667,136.43 396.256667,133.05 403.536667,129.02 L417.706667,142.02 L436.296667,123.3 L421.736667,110.56 L436.296667,93.92 L417.186667,77.93 L402.886667,94.18 L396.386667,88.59 C408.606667,82.35 414.066667,73.9 414.066667,64.41 C414.066667,49.72 400.416667,39.32 379.876667,39.32 C357.906667,39.32 344.516667,51.15 344.516667,65.58 C344.516667,73.12 348.416667,80.27 357.126667,86.38 C344.126667,90.93 337.106667,99.9 337.106667,110.43 Z M380.396667,74.55 C377.276667,71.82 375.456667,70.13 375.456667,67.4 C375.456667,64.8 377.276667,62.85 380.396667,62.85 C383.516667,62.85 385.336667,64.8 385.336667,67.4 C385.336667,70.13 383.516667,71.82 380.396667,74.55 Z M369.606667,107.57 C369.606667,105.49 371.036667,103.54 374.286667,102.11 L384.036667,111.21 C381.696667,112.25 378.966667,112.64 377.016667,112.64 C373.246667,112.64 369.606667,110.95 369.606667,107.57 Z M480.872222,135 L515.712222,135 L515.712222,89.11 L515.972222,89.11 L533.132222,111.21 L549.902222,89.11 L550.162222,89.11 L550.162222,135 L588.902222,135 L588.902222,40.88 L553.802222,40.88 L535.732222,64.54 L517.012222,40.88 L480.872222,40.88 L480.872222,135 Z M598.84,135 L668.39,135 L668.39,105.1 L637.58,105.1 L637.58,99.77 L660.98,99.77 L660.98,77.41 L637.58,77.41 L637.58,72.34 L666.57,72.34 L666.57,40.88 L598.84,40.88 L598.84,135 Z" id="logotype" fill="#FFFFFF"></path>
            <g id="Group" transform="translate(304.000000, 12.000000)">
                <g id="Group-2" transform="translate(82.500000, 82.155130) rotate(45.000000) translate(-82.500000, -82.155130) translate(24.500000, 24.155130)">
                    <mask id="mask-2" fill="white">
                        <use xlink:href="#path-1"></use>
                    </mask>
                    <g id="Mask">
                        <use fill="#FFFFFF" fill-rule="evenodd" xlink:href="#path-1"></use>
                        <use stroke="#000000" mask="url(#mask-3)" stroke-width="11.55" xlink:href="#path-1"></use>
                    </g>
                    <g mask="url(#mask-2)">
                        <g transform="translate(-2.163036, -3.202811)">
                            <rect id="Rectangle" fill="#D0011B" x="0.0287096878" y="-2.13162821e-14" width="39.5674057" height="120.582977"></rect>
                            <rect id="Rectangle-Copy" fill="#7ED321" x="39.3992615" y="-1.91846539e-13" width="39.5674057" height="120.582977"></rect>
                            <rect id="Rectangle-Copy-2" fill="#4990E2" x="78.7698133" y="-4.05009359e-13" width="39.5674057" height="120.582977"></rect>
                        </g>
                    </g>
                </g>
                <mask id="mask-5" fill="white">
                    <use xlink:href="#path-4"></use>
                </mask>
                <g id="Mask">
                    <use fill="#FFFFFF" fill-rule="evenodd" xlink:href="#path-4"></use>
                    <use fill="black" fill-opacity="1" xlink:href="#path-4"></use>
                </g>
            </g>
        </g>
    </g>
</svg>